# xmcd CD database file
#
# Track frame offsets:
#	150
#	11655
#	32047
#	50490
#	69450
#	88067
#	110757
#	127230
#	148575
#	154395
#
# Disc length: 2430 seconds
#
# Revision: 0
# Processed by: cddbd v1.5.1PL0 Copyright (c) Steve Scherf et al.
# Submitted via: CDex 1.50beta10
#
DISCID=92097c0a
DTITLE=Schwarz Stein - Artificial Hallucination
DYEAR=2004
DGENRE=Visual Kei
TTITLE0=Testament
TTITLE1=Addictive Epicurean
TTITLE2=Profane gene
TTITLE3=CREEPER
TTITLE4=the alternation of generations -expire-
TTITLE5=Emergence of Silence
TTITLE6=Perfect Garden -SK0520MIX-
TTITLE7=Corroded cage
TTITLE8=Schism
TTITLE9=Last Hallucination
EXTD=YEAR: 2004
EXTT0=
EXTT1=
EXTT2=
EXTT3=
EXTT4=
EXTT5=
EXTT6=
EXTT7=
EXTT8=
EXTT9=
PLAYORDER=
